<svg width="35" height="35" viewBox="0 0 35 35" fill="none" xmlns="http://www.w3.org/2000/svg">
<rect width="35" height="35" rx="17.5" fill="#F6F6F6"/>
<path d="M12.5 11C12.1022 11 11.7206 11.158 11.4393 11.4393C11.158 11.7206 11 12.1022 11 12.5V20.5C11 20.8978 11.158 21.2794 11.4393 21.5607C11.7206 21.842 12.1022 22 12.5 22H22.5C22.8978 22 23.2794 21.842 23.5607 21.5607C23.842 21.2794 24 20.8978 24 20.5V12.5C24 12.1022 23.842 11.7206 23.5607 11.4393C23.2794 11.158 22.8978 11 22.5 11H12.5ZM10 24H25V23H10V24Z" fill="black"/>
</svg>